<svg width="17" height="28" viewBox="0 0 17 28" fill="none" xmlns="http://www.w3.org/2000/svg">
<path d="M7.99973 1C3.58852 1 0 4.54668 0 8.90614C0 13.0931 7.28711 25.765 7.59705 26.3024L7.99981 27L8.40295 26.3024C8.71292 25.7649 16 13.093 16 8.90614C15.9996 4.54673 12.411 1 7.99979 1H7.99973ZM7.99973 25.1379C6.44488 22.372 0.92745 12.3139 0.92745 8.90614C0.92745 5.05202 4.10004 1.9166 7.99973 1.9166C11.8995 1.9166 15.072 5.05207 15.072 8.90614C15.072 12.3129 9.55416 22.3713 7.99973 25.1379Z" fill="black" stroke="black" stroke-width="0.3"/>
<path d="M7.99925 5.66534L4.22372 8.51344L4.78658 9.24195L5.45198 8.73997V11.8575H10.5459V8.73979L11.212 9.24233L11.7747 8.51382L7.99925 5.66534ZM9.61827 10.9409H6.37972V8.04041L7.9993 6.81848L9.61832 8.04023L9.61827 10.9409Z" fill="black" stroke="black" stroke-width="0.3"/>
<path d="M7.99972 2.95911C4.58557 2.95911 1.80804 5.70418 1.80804 9.07834C1.80804 12.4524 4.58543 15.1976 7.99972 15.1976C11.414 15.1976 14.1914 12.4525 14.1914 9.07834C14.1914 5.70413 11.414 2.95911 7.99972 2.95911ZM7.99972 14.281C5.09699 14.281 2.7355 11.9471 2.7355 9.07834C2.7355 6.20957 5.09699 3.87571 7.99972 3.87571C10.9025 3.87571 13.264 6.20957 13.264 9.07834C13.264 11.9467 10.9025 14.281 7.99972 14.281Z" fill="black" stroke="black" stroke-width="0.3"/>
</svg>
