<svg width="120" height="30" viewBox="0 0 120 30" fill="none" xmlns="http://www.w3.org/2000/svg">
<path d="M5.3826 18.774C5.37474 18.774 5.36743 18.774 5.35957 18.7746H9.11842V18.774H5.3826Z" fill="black"/>
<path d="M17.5655 10.3066C19.0308 9.30234 20 7.57324 20 5.6127C20 2.51777 17.5851 0 14.6174 0H5.38263C2.41488 0 0 2.51777 0 5.6127C0 7.57324 0.96921 9.30234 2.43454 10.3066C0.96921 11.3104 0 13.0395 0 15C0 16.9605 0.96921 18.6896 2.43454 19.6939C0.96921 20.6971 0 22.4268 0 24.3873C0 27.4822 2.4278 30 5.41128 30C8.42735 30 10.8816 27.4547 10.8816 24.3264V19.1502C11.8378 20.059 13.1082 20.6127 14.5005 20.6127H14.6174C17.5851 20.6127 20 18.0949 20 15C20 13.0395 19.0308 11.3104 17.5655 10.3066ZM10.8816 1.83867H14.6174C16.6131 1.83867 18.2369 3.53145 18.2369 5.6127C18.2369 7.69395 16.6131 9.38731 14.6174 9.38731H10.8816V1.83867ZM1.76312 5.6127C1.76312 3.53145 3.3869 1.83867 5.38263 1.83867H9.11844V9.38731H5.38263C3.3869 9.38731 1.76312 7.69395 1.76312 5.6127ZM1.76312 15C1.76312 12.9187 3.3869 11.226 5.38263 11.226H9.11844V18.7746H5.35959C3.37454 18.7617 1.76312 17.073 1.76312 15ZM9.11844 24.3264C9.11844 26.441 7.45533 28.1613 5.41128 28.1613C3.39982 28.1613 1.76312 26.4686 1.76312 24.3873C1.76312 22.3061 3.3869 20.6127 5.38263 20.6127H9.11844V24.3264ZM14.6174 18.7746H14.5005C12.5048 18.7746 10.8816 17.0813 10.8816 15C10.8816 12.9187 12.5048 11.226 14.5005 11.226H14.6174C16.6131 11.226 18.2369 12.9187 18.2369 15C18.2369 17.0813 16.6131 18.7746 14.6174 18.7746Z" fill="black"/>
<path d="M40 0V30H70V0H40ZM42.7273 2.72727H67.2727V27.2727H42.7273V2.72727ZM51.8892 8.18182L51.5909 9.11932L48.2244 19.6449L48.1818 19.858V21.8182H50.9091V20.4545H55V21.8182H57.7273V19.858L57.6847 19.6449L54.3182 9.11932L54.0199 8.18182H51.8892ZM59.0909 8.18182V10.9091H61.8182V8.18182H59.0909ZM59.0909 13.6364V21.8182H61.8182V13.6364H59.0909ZM52.9545 13.8494L54.1903 17.7273H51.7188L52.9545 13.8494Z" fill="black"/>
<path d="M90 0V30H120V0H90ZM92.7273 2.72727H117.273V27.2727H92.7273V2.72727ZM96.8182 8.18182V21.8182H99.5455V16.3636H100.909C103.152 16.3636 105 14.5153 105 12.2727C105 10.0302 103.152 8.18182 100.909 8.18182H96.8182ZM99.5455 10.9091H100.909C101.681 10.9091 102.273 11.5004 102.273 12.2727C102.273 13.0451 101.681 13.6364 100.909 13.6364H99.5455V10.9091ZM109.773 10.9091C107.908 10.9091 106.364 12.4538 106.364 14.3182C106.364 16.1825 107.908 17.7273 109.773 17.7273C110.162 17.7273 110.455 18.0202 110.455 18.4091C110.455 18.9045 110.369 19.0909 109.773 19.0909C109.256 19.0909 109.181 18.9737 109.176 18.9631C109.171 18.9524 109.091 18.9098 109.091 18.5795H106.364C106.364 19.3519 106.577 20.2255 107.216 20.8807C107.855 21.5359 108.782 21.8182 109.773 21.8182C111.696 21.8182 113.182 20.1722 113.182 18.4091C113.182 16.5447 111.637 15 109.773 15C109.384 15 109.091 14.707 109.091 14.3182C109.091 13.9293 109.384 13.6364 109.773 13.6364C110.14 13.6364 110.241 13.7163 110.327 13.8068C110.412 13.8974 110.455 14.0732 110.455 14.1903H113.182C113.182 13.418 112.915 12.619 112.33 11.9744C111.744 11.3299 110.806 10.9091 109.773 10.9091Z" fill="black"/>
</svg>
