<svg width="22" height="30" viewBox="0 0 22 30" fill="none" xmlns="http://www.w3.org/2000/svg">
<path d="M18.8897 10.3066C20.4178 9.30234 21.4286 7.57324 21.4286 5.6127C21.4286 2.51777 18.9102 0 15.8153 0H6.18481C3.08989 0 0.571533 2.51777 0.571533 5.6127C0.571533 7.57324 1.58228 9.30234 3.1104 10.3066C1.58228 11.3104 0.571533 13.0395 0.571533 15C0.571533 16.9605 1.58228 18.6896 3.1104 19.6939C1.58228 20.6971 0.571533 22.4268 0.571533 24.3873C0.571533 27.4822 3.10337 30 6.2147 30C9.36001 30 11.9194 27.4547 11.9194 24.3264V19.1502C12.9167 20.059 14.2415 20.6127 15.6934 20.6127H15.8153C18.9102 20.6127 21.4286 18.0949 21.4286 15C21.4286 13.0395 20.4178 11.3104 18.8897 10.3066ZM11.9194 1.83867H15.8153C17.8965 1.83867 19.5899 3.53145 19.5899 5.6127C19.5899 7.69395 17.8965 9.38731 15.8153 9.38731H11.9194V1.83867ZM2.41021 5.6127C2.41021 3.53145 4.10356 1.83867 6.18481 1.83867H10.0807V9.38731H6.18481C4.10356 9.38731 2.41021 7.69395 2.41021 5.6127ZM2.41021 15C2.41021 12.9187 4.10356 11.226 6.18481 11.226H10.0807V18.7746H6.16079C4.09067 18.7617 2.41021 17.073 2.41021 15ZM10.0807 24.3264C10.0807 26.441 8.34634 28.1613 6.2147 28.1613C4.11704 28.1613 2.41021 26.4686 2.41021 24.3873C2.41021 22.3061 4.10356 20.6127 6.18481 20.6127H10.0807V24.3264ZM15.8153 18.7746H15.6934C13.6122 18.7746 11.9194 17.0813 11.9194 15C11.9194 12.9187 13.6122 11.226 15.6934 11.226H15.8153C17.8965 11.226 19.5899 12.9187 19.5899 15C19.5899 17.0813 17.8965 18.7746 15.8153 18.7746Z" fill="black"/>
<path d="M6.18479 18.774C6.17659 18.774 6.16897 18.774 6.16077 18.7746H10.0807V18.774H6.18479Z" fill="black"/>
</svg>
