<svg width="16" height="18" viewBox="0 0 16 18" fill="none" xmlns="http://www.w3.org/2000/svg">
<path d="M15.9999 6.28293C15.9958 5.20191 15.6228 4.1549 14.9428 3.31458C15.1738 2.35411 15.1016 1.34557 14.7368 0.42745C14.6649 0.250711 14.5174 0.115588 14.3353 0.0590717C14.0774 -0.0293007 13.1015 -0.194991 11.1129 1.09379V1.09404C10.2575 0.86824 9.37533 0.761632 8.49088 0.777304C7.60512 0.761376 6.72146 0.867984 5.86496 1.09404C3.8248 -0.224308 2.7641 -0.0108405 2.55064 0.0518317C2.36747 0.110659 2.22028 0.248607 2.14912 0.427397C1.78331 1.34242 1.70856 2.34814 1.93565 3.30736C1.2333 4.14327 0.85904 5.20601 0.882386 6.29754C0.882386 10.3708 3.21336 11.6007 5.34941 12.0354C5.23971 12.3036 5.16419 12.5843 5.12489 12.8713C5.12103 12.9018 5.12103 12.9329 5.12489 12.9635V14.0902C3.18053 14.2523 2.76432 13.1143 2.72375 12.9853V12.9856C2.71424 12.9555 2.70319 12.926 2.69035 12.897C2.31478 12.131 1.65379 11.5424 0.848984 11.2583C0.511436 11.1455 0.146108 11.3276 0.0333904 11.6652C-0.0793801 12.0027 0.102751 12.3681 0.440299 12.481C0.886252 12.6421 1.25826 12.9601 1.48633 13.3757C1.74424 14.2117 2.79751 15.5338 5.11743 15.3864V16.4471C5.11743 16.8031 5.40592 17.0916 5.76196 17.0916C6.11776 17.0916 6.40649 16.8031 6.40649 16.4471V13.0112C6.4553 12.6359 6.61869 12.285 6.87403 12.0058C7.05693 11.8347 7.12321 11.5729 7.04409 11.3353C6.96497 11.098 6.75458 10.9282 6.50591 10.9009C4.25944 10.6394 2.18251 9.89935 2.18251 6.27179H2.18226C2.1522 5.38656 2.49412 4.52907 3.12504 3.90741C3.29613 3.72348 3.35264 3.46069 3.27249 3.22256C3.05542 2.59216 3.04129 1.9096 3.2319 1.27071C4.02257 1.44924 4.76523 1.79733 5.40826 2.29083C5.57576 2.40155 5.78461 2.43006 5.97547 2.36815C6.79389 2.11897 7.64677 2.00337 8.50196 2.02572C9.35556 2.00337 10.2075 2.11897 11.0246 2.36815C11.2154 2.43057 11.4245 2.40206 11.5918 2.29083C12.2111 1.8161 12.9201 1.47162 13.6761 1.27795C13.8639 1.92401 13.8472 2.61221 13.6281 3.24827C13.5549 3.46432 13.6027 3.70322 13.7534 3.8743C14.363 4.52525 14.7083 5.38015 14.7219 6.27183C14.7219 9.89189 12.5381 10.6433 10.3985 10.901C10.1363 10.9302 9.91868 11.117 9.85035 11.3718C9.78202 11.6267 9.87681 11.8972 10.0893 12.0539C10.3176 12.227 10.5827 12.713 10.5827 13.5268V16.4435C10.5827 16.7996 10.8712 17.0881 11.227 17.0881C11.5831 17.0881 11.8715 16.7996 11.8715 16.4435V13.5268C11.8782 13.0138 11.7845 12.5047 11.5954 12.0279C13.3263 11.6598 16 10.5218 16 6.28289L15.9999 6.28293Z" fill="black"/>
</svg>
