<svg width="52" height="52" viewBox="0 0 52 52" fill="none" xmlns="http://www.w3.org/2000/svg">
<path d="M26 1C12.2598 1 1 12.3575 1 26.0977C1 39.7581 12.1572 51 26 51C39.8256 51 51 39.7749 51 26.0977C51 12.3575 39.7402 1 26 1ZM30.3945 47.6309C28.9884 47.9238 27.4942 48.0703 26 48.0703C24.5058 48.0703 23.0116 47.9238 21.6055 47.6309V40.7755C21.6055 39.1348 22.0449 38.5488 22.6309 37.7577C22.9292 37.4166 23.1092 37.1107 24.447 35.0919L22.1914 34.7402C16.3904 33.8907 14.1054 30.8729 13.1971 28.5291C12.0252 25.3946 12.6405 21.4685 14.7501 18.9787C15.0724 18.5976 15.336 17.9529 15.1018 17.2792C14.662 15.9315 14.7207 13.793 15.0137 12.9724C16.567 13.1944 18.1642 14.3072 19.4963 15.1113C20.1101 15.4695 20.4321 15.3749 20.7266 15.4043C21.797 15.1815 23.4667 14.6425 26.0294 14.6425C27.6113 14.6425 29.2814 14.8767 30.9221 15.3456C31.2155 15.3387 31.687 15.5882 32.5041 15.1113C33.8964 14.2629 35.4395 13.1883 36.9863 12.9724C37.2793 13.793 37.338 15.9315 36.8986 17.2792C36.664 17.9529 36.9276 18.5976 37.2503 18.9787C39.3595 21.4689 39.9748 25.3946 38.8029 28.5291C37.8946 30.8729 35.6096 33.8907 29.8086 34.7402L27.553 35.0919C28.9358 37.1786 29.0815 37.4288 29.3695 37.7577C29.9551 38.5488 30.3945 39.1348 30.3945 40.7755V47.6309ZM33.3242 46.7813V40.7755C33.3242 39.1054 32.9725 37.9923 32.5037 37.1717C36.957 35.9709 40.1212 33.3338 41.5273 29.5545C43.0216 25.5705 42.3479 20.8242 39.8573 17.5428C40.2971 15.5802 40.2971 12.4452 39.2423 10.9804C38.7735 10.3361 38.1288 9.98438 37.3087 9.98438C37.2793 9.98438 37.2793 9.98438 37.2793 9.98438C35.0076 10.1072 33.2197 11.2512 31.3028 12.4159C29.545 11.947 27.7578 11.7128 25.9706 11.7128C24.1544 11.7128 22.3379 11.9764 20.7269 12.4159C18.709 11.199 16.9382 10.1042 14.6036 9.98438C13.8712 9.98438 13.2265 10.3361 12.7577 10.9804C11.7033 12.4452 11.7033 15.5802 12.1427 17.5428C9.65211 20.8242 8.97844 25.5995 10.4727 29.5545C11.8788 33.3338 15.043 35.9709 19.4963 37.1717C19.1328 37.8076 18.8452 38.6282 18.7319 39.7386C17.8324 40.0488 17.0522 40.1499 16.3267 39.9366C15.5615 39.7104 14.9652 39.1996 14.4472 38.3283C13.2837 36.3737 11.302 34.778 9.04558 34.9855L9.30307 37.9038C10.3479 37.808 11.3878 38.9135 11.928 39.8248C12.8191 41.3255 14.0196 42.3097 15.497 42.7461C16.5937 43.0692 17.5962 43.0616 18.6758 42.8312V46.7813C10.1503 43.7929 3.92969 35.6485 3.92969 26.0977C3.92969 13.9688 13.8712 3.92969 26 3.92969C38.1288 3.92969 48.0703 13.9688 48.0703 26.0977C48.0703 35.6485 41.8497 43.7929 33.3242 46.7813Z" fill="black" stroke="black"/>
</svg>
