<svg width="23" height="50" viewBox="0 0 23 50" fill="none" xmlns="http://www.w3.org/2000/svg">
<path d="M19.4883 38.1933L18.1113 40.5957L17.6621 48.4277C17.6621 49.2969 14.8984 50 11.5 50C8.10156 50 5.33789 49.2969 5.33789 48.4277L4.77148 40.6738L3.31641 38.1933C7.33984 39.8828 15.6211 39.8242 19.4883 38.1933ZM0.347656 13.457L1.67578 25.7129C2.25195 23.7598 3.70703 21.123 5.58203 20.3223C6.19727 20.0586 6.82227 20.0586 7.4082 20.4101C7.91602 20.7031 8.3457 21.3183 8.39453 21.5625C8.51172 22.1973 8.19922 22.4512 7.95508 22.4512C7.66211 22.4512 7.4375 22.0019 7.29102 21.7383C6.89062 21.0254 6.28516 20.9961 5.64062 21.4648C4.9668 21.9531 4.38086 22.7734 3.9707 23.4863C3.47266 24.3457 3.05273 25.293 2.79883 26.2402C2.65234 26.7871 2.51562 27.666 2.74023 28.1836C2.83789 28.3984 2.98438 28.5351 3.21875 28.5351C3.70703 28.5351 4.41992 27.8906 4.76172 27.5488C5.20117 27.1094 5.76758 26.4258 5.98242 25.9863L6.49023 24.4726C6.74414 23.8086 7.45703 23.9258 7.45703 24.4726C7.45703 25.4687 7.0957 25.8008 6.48047 27.8613C5.91406 29.7656 5.73828 30.3808 5.73828 30.3808C5.66992 30.6543 5.40625 31.1133 5.12305 31.1133C5.00586 31.1133 4.91797 31.0742 4.86914 30.9961C4.77148 30.8594 4.78125 30.4785 4.79102 30.3808C4.81055 30.0683 5.40625 28.2129 5.50391 27.9199C5.30859 28.1348 5.10352 28.3496 4.87891 28.5644C4.35156 29.0625 3.50195 29.7168 2.7793 29.7168C2.44727 29.7168 2.23242 29.6289 2.02734 29.4824L2.76953 37.2558C2.96484 37.7441 6.59766 38.9258 11.3828 38.9258C16.1777 38.9258 19.8105 37.7344 19.9961 37.2558L21.0605 28.0176C20.5039 28.5254 19.8594 29.1504 19.1465 29.4629C18.6191 29.6875 17.4473 29.834 17.4473 28.9062C17.4473 28.3984 18.3359 27.4609 18.8535 26.8066C18.9902 26.6406 19.3125 26.2305 19.3125 26.0156C19.3125 25.7324 18.7266 25.8008 18.1699 26.2598C17.8574 26.5234 17.5645 26.875 17.3203 27.207C16.9004 27.793 16.6758 28.3008 16.4902 28.7207C15.8848 30.1074 16.0898 29.5605 15.6016 30.8691C15.1133 32.168 15.1914 32.0215 15.0938 32.2363C15.0059 32.4219 14.8789 32.5781 14.7031 32.6758C14.5176 32.7734 14.2637 32.7637 14.1074 32.6465C14.0195 32.5879 13.9805 32.4609 13.9805 32.2851C13.9805 32.1973 13.9902 32.1094 14.0098 32.0215C14.1562 31.4258 14.7715 30.2539 15.4746 28.6719C15.6309 28.3105 15.5723 28.418 15.5527 28.4473C14.9473 29.0332 14.4883 29.3164 14.1465 29.4726C13.5801 29.7265 12.877 29.7265 12.7305 29.0723C12.7207 29.0332 12.7207 28.9941 12.7109 28.9551C11.5586 29.8535 10.3379 30.0976 10.7578 28.164C10.3086 28.9648 9.52734 29.6191 8.57031 29.6191C8.16992 29.6191 7.87695 29.4824 7.73047 29.1211C7.50586 28.584 7.85742 27.666 8.17969 26.7969C8.3457 26.3574 8.57031 25.8301 8.87305 25.2148C9.0293 24.8828 9.2832 24.6875 9.61523 24.7754C9.67383 24.7949 9.72266 24.8144 9.77148 24.8437C10.0254 25.0195 9.92773 25.2832 9.80078 25.5469C9.42969 26.2793 9.10742 26.8164 8.89258 27.5781C8.80469 27.9004 8.69727 28.457 9.03906 28.457C9.27344 28.457 9.49805 28.3789 9.71289 28.2226C10.1621 27.8906 10.5234 27.3926 10.7969 26.9043C10.9922 26.5527 11.2266 26.0937 11.3438 25.7031C11.3926 25.5371 11.4512 25.3808 11.5195 25.2344C11.627 24.9902 11.7734 24.7363 12.0273 24.7363C12.1543 24.7363 12.2617 24.7851 12.3398 24.8828C12.5059 25.0976 12.4668 25.3223 12.3789 25.5566C12.1836 26.1035 11.9199 26.5918 11.7051 27.1875C11.5781 27.5293 11.4414 27.9687 11.4414 28.3301C11.4414 28.6621 11.8027 28.584 12.1055 28.4473C12.3398 28.3398 12.5742 28.1738 12.7695 28.0078C12.8867 27.5293 12.8574 27.6367 15.3477 21.3476C15.4746 21.0254 15.709 20.8887 15.9434 20.8887C16.0605 20.8887 16.1582 20.9277 16.2559 20.9961C16.4219 21.123 16.4219 21.3965 16.3535 21.6015C16.2852 21.7871 16.2949 21.7285 15.9141 22.6269C15.4062 23.8086 15.0742 24.6582 14.625 25.7422C14.4395 26.1914 13.873 27.5879 13.7754 27.9199C13.7168 28.1348 13.6484 28.4863 13.873 28.4863C14.4004 28.4863 15.7578 27.207 16.1289 26.8262C16.1484 26.7969 16.1777 26.7871 16.2168 26.7676C16.2754 26.582 16.334 26.4062 16.3828 26.2305C16.5195 25.8594 16.6465 25.4297 16.9004 25.1269C16.9785 25.0293 17.0664 24.9707 17.1641 24.9707C17.4375 24.9707 17.5742 25.0879 17.5742 25.3613C17.5742 25.4687 17.5059 25.8594 17.4668 25.9668C17.6035 25.8203 17.75 25.6738 17.9062 25.5273C19.3711 24.1699 20.416 24.8633 20.416 25.5469C20.416 26.2695 19.5469 27.2754 19.0684 27.832C18.9121 28.0176 18.5898 28.3594 18.5801 28.457C18.5801 28.584 18.668 28.6328 18.7949 28.6328C18.9902 28.6328 19.4199 28.291 19.5762 28.1738C20.0645 27.793 20.7285 27.207 21.1973 26.7969L22.6426 13.4375C19.6641 15.1074 3.3457 15.1172 0.347656 13.457ZM22.7793 12.6269C22.7793 14.6777 0.201172 14.6777 0.201172 12.6269C0.201172 11.7676 5.25977 11.0742 11.4902 11.0742C12.3691 11.0742 13.2285 11.084 14.0586 11.1133L15.2891 6.35741L21.2754 0.0585792C21.4121 -0.0781395 21.8418 0.039048 22.2422 0.400376C22.6426 0.761704 22.8867 1.17186 22.7598 1.30858L22.75 1.31834L17.1543 7.22655L16.1777 11.2012C20.0742 11.4551 22.7793 11.9922 22.7793 12.6269ZM16.002 13.0762C16.002 12.998 15.9141 12.9297 15.7578 12.8711L15.7383 12.9492C15.7383 13.0762 15.25 13.1836 14.6543 13.1836C14.0586 13.1836 13.5703 13.0762 13.5703 12.9492C13.5703 12.9394 13.5703 12.9297 13.5801 12.9199L13.5996 12.8515C13.4238 12.9101 13.3066 12.9883 13.3066 13.0762C13.3066 13.2812 13.9121 13.4375 14.6445 13.4375C15.3965 13.4473 16.002 13.2812 16.002 13.0762Z" fill="black"/>
</svg>
