<svg width="30" height="30" viewBox="0 0 30 30" fill="none" xmlns="http://www.w3.org/2000/svg">
<path d="M0 0V30H30V0H0ZM2.72727 2.72727H27.2727V27.2727H2.72727V2.72727ZM6.81818 8.18182V21.8182H9.54545V16.3636H10.9091C13.1516 16.3636 15 14.5153 15 12.2727C15 10.0302 13.1516 8.18182 10.9091 8.18182H6.81818ZM9.54545 10.9091H10.9091C11.6815 10.9091 12.2727 11.5004 12.2727 12.2727C12.2727 13.0451 11.6815 13.6364 10.9091 13.6364H9.54545V10.9091ZM19.7727 10.9091C17.9084 10.9091 16.3636 12.4538 16.3636 14.3182C16.3636 16.1825 17.9084 17.7273 19.7727 17.7273C20.1616 17.7273 20.4545 18.0202 20.4545 18.4091C20.4545 18.9045 20.3693 19.0909 19.7727 19.0909C19.256 19.0909 19.1815 18.9737 19.1761 18.9631C19.1708 18.9524 19.0909 18.9098 19.0909 18.5795H16.3636C16.3636 19.3519 16.5767 20.2255 17.2159 20.8807C17.8551 21.5359 18.782 21.8182 19.7727 21.8182C21.6957 21.8182 23.1818 20.1722 23.1818 18.4091C23.1818 16.5447 21.6371 15 19.7727 15C19.3839 15 19.0909 14.707 19.0909 14.3182C19.0909 13.9293 19.3839 13.6364 19.7727 13.6364C20.1403 13.6364 20.2415 13.7163 20.3267 13.8068C20.4119 13.8974 20.4545 14.0732 20.4545 14.1903H23.1818C23.1818 13.418 22.9155 12.619 22.3295 11.9744C21.7436 11.3299 20.8061 10.9091 19.7727 10.9091Z" fill="black"/>
</svg>
