<svg width="17" height="18" viewBox="0 0 17 18" fill="none" xmlns="http://www.w3.org/2000/svg">
<path d="M16 8.98967C15.9943 4.58289 12.4077 1 8 1C3.58885 1 0 4.58889 0 9C0 13.4111 3.58889 17 8 17C9.13595 17 10.2339 16.7665 11.2633 16.306C11.4386 16.2276 11.5171 16.0219 11.4387 15.8466C11.3603 15.6714 11.1546 15.5931 10.9793 15.6712C10.0399 16.0915 9.03751 16.3045 7.99996 16.3045C3.97194 16.3045 0.695478 13.0278 0.695478 9C0.695478 4.97198 3.97246 1.69551 7.99996 1.69551C12.0276 1.69551 15.3044 4.97249 15.3044 9C15.3044 9.00683 15.3046 9.01412 15.3049 9.0208C15.3133 9.16192 15.4779 12.4835 12.8778 12.9286C11.4507 13.1729 10.9701 12.9068 10.857 12.8205C10.6903 12.084 10.9757 10.341 11.1044 9.71056V9.71025C11.1727 9.38547 11.2093 9.06318 11.2191 8.74754C11.4787 7.07846 12.0026 5.92836 12.0088 5.91501C12.0896 5.74097 12.0138 5.53418 11.8398 5.45315C11.6659 5.37242 11.4591 5.44771 11.3781 5.62175C11.3613 5.65761 11.1489 6.12303 10.9243 6.8819C10.5107 5.77234 9.69158 4.94348 8.62613 4.71881C8.43782 4.67907 8.24453 4.65904 8.05188 4.65904C6.34632 4.65904 4.7867 6.18484 4.34332 8.2872C3.84589 10.6478 4.95748 12.8879 6.82126 13.281C7.00957 13.3207 7.2027 13.3408 7.39535 13.3408H7.39551C8.43039 13.3408 9.40971 12.7768 10.1206 11.8653C10.0991 12.3354 10.1165 12.7808 10.21 13.0928C10.2176 13.1186 10.2285 13.1434 10.242 13.1667C10.3225 13.3062 10.8336 13.9841 12.9951 13.614C15.5619 13.1746 16.0829 10.4036 16 8.98944L16 8.98967ZM7.3955 12.6454C7.25081 12.6454 7.10596 12.6304 6.96468 12.6006C5.476 12.2867 4.60537 10.4161 5.02391 8.43068C5.39356 6.67699 6.69549 5.3546 8.05202 5.3546C8.19671 5.3546 8.34156 5.36966 8.48285 5.39946C9.74781 5.66618 10.5633 7.05828 10.5239 8.68857C10.4807 8.97438 10.4444 9.2734 10.4196 9.5859C10.0449 11.3314 8.74786 12.6455 7.39546 12.6454L7.3955 12.6454Z" fill="black" stroke="black" stroke-width="0.4"/>
</svg>
