<svg width="17" height="28" viewBox="0 0 17 28" fill="none" xmlns="http://www.w3.org/2000/svg">
<path d="M1.53846 1C0.691538 1 0 1.67948 0 2.51163V25.4884C0 26.3205 0.691538 27 1.53846 27H14.4615C15.3085 27 16 26.3205 16 25.4884V2.51163C16 1.67948 15.3085 1 14.4615 1H1.53846ZM1.53846 1.6046H14.4615C14.9781 1.6046 15.3844 2.00401 15.3844 2.51163V25.4884C15.3844 25.996 14.9782 26.3954 14.4615 26.3954H1.53846C1.02185 26.3954 0.61555 25.996 0.61555 25.4884V2.51163C0.61555 2.00403 1.02184 1.6046 1.53846 1.6046ZM2.09626 3.41866C1.94903 3.44628 1.84364 3.57387 1.84622 3.72107V21.8606C1.84622 22.0274 1.98401 22.1628 2.154 22.1628H13.8463C14.0163 22.1628 14.1541 22.0274 14.1541 21.8606V3.72107C14.1541 3.55405 14.0163 3.41866 13.8463 3.41866H2.154C2.13468 3.41697 2.11537 3.41697 2.09626 3.41866ZM2.46156 4.02326H13.5385V21.5581H2.46156V4.02326ZM8.00002 23.0698C7.32392 23.0698 6.76936 23.6147 6.76936 24.279C6.76936 24.9433 7.32398 25.4884 8.00002 25.4884C8.67607 25.4884 9.23068 24.9432 9.23068 24.279C9.23068 23.6147 8.67607 23.0698 8.00002 23.0698ZM8.00002 23.6744C8.34343 23.6744 8.61535 23.9416 8.61535 24.279C8.61535 24.6166 8.34342 24.8838 8.00002 24.8838C7.65663 24.8838 7.38469 24.6166 7.38469 24.279C7.38469 23.9415 7.65663 23.6744 8.00002 23.6744Z" fill="black" stroke="black" stroke-width="0.4"/>
</svg>
