<svg width="50" height="38" viewBox="0 0 50 38" fill="none" xmlns="http://www.w3.org/2000/svg">
<path d="M43.0299 21.802C41.2829 21.811 39.7689 22.231 38.4999 22.856C38.0359 21.93 37.5659 21.115 37.4869 20.509C37.3949 19.802 37.2879 19.38 37.3989 18.537C37.5099 17.694 37.9979 16.501 37.9899 16.412C37.9829 16.323 37.8809 15.894 36.8729 15.886C35.8649 15.879 35.0029 16.08 34.9009 16.346C34.7989 16.612 34.6049 17.211 34.4849 17.836C34.3079 18.75 32.4729 22.01 31.4299 23.715C31.0889 23.049 30.7989 22.463 30.7389 21.999C30.6469 21.292 30.5399 20.87 30.6509 20.027C30.7619 19.184 31.2499 17.991 31.2419 17.902C31.2349 17.813 31.1329 17.384 30.1249 17.376C29.1169 17.369 28.2549 17.57 28.1529 17.836C28.0509 18.102 27.9429 18.724 27.7369 19.326C27.5299 19.928 25.0899 25.365 24.4509 26.774C24.1249 27.492 23.8419 28.069 23.6419 28.463C23.6409 28.462 23.6409 28.461 23.6409 28.461C23.6409 28.461 23.6289 28.487 23.6069 28.532C23.4359 28.867 23.3339 29.053 23.3339 29.053C23.3339 29.053 23.3349 29.056 23.3369 29.06C23.2009 29.306 23.0559 29.535 22.9839 29.535C22.9339 29.535 22.8329 28.879 23.0059 27.98C23.3689 26.094 24.2409 23.152 24.2329 23.051C24.2289 22.999 24.3949 22.487 23.6629 22.218C22.9519 21.958 22.6979 22.392 22.6329 22.393C22.5699 22.394 22.5229 22.546 22.5229 22.546C22.5229 22.546 23.3159 19.238 21.0109 19.238C19.5709 19.238 17.5749 20.814 16.5909 22.242C15.9709 22.58 14.6429 23.305 13.2339 24.079C12.6929 24.376 12.1409 24.68 11.6169 24.969C11.5809 24.93 11.5459 24.89 11.5089 24.851C8.71495 21.87 3.55095 19.762 3.76995 15.755C3.84995 14.298 4.35595 10.462 13.6939 5.80904C21.3429 1.99704 27.4669 3.04604 28.5249 5.37104C30.0369 8.69204 25.2519 14.865 17.3089 15.755C14.2819 16.094 12.6889 14.921 12.2919 14.484C11.8749 14.024 11.8129 14.003 11.6569 14.09C11.4029 14.231 11.5639 14.637 11.6569 14.879C11.8939 15.496 12.8669 16.591 14.5269 17.135C15.9869 17.614 19.5399 17.877 23.8379 16.215C28.6509 14.353 32.4089 9.17404 31.3059 4.84504C30.1829 0.44204 22.8829 -1.00496 15.9739 1.44904C11.8619 2.91004 7.41095 5.20304 4.20995 8.19604C0.403949 11.756 -0.202052 14.854 0.0479485 16.148C0.936948 20.748 7.27595 23.743 9.81495 25.963C9.68995 26.032 9.57195 26.097 9.46495 26.156C8.19195 26.786 3.35995 29.315 2.15095 31.987C0.779948 35.018 2.36895 37.193 3.42195 37.486C6.68195 38.393 10.0279 36.761 11.8259 34.079C13.6239 31.398 13.4039 27.907 12.5789 26.313C12.5689 26.293 12.5569 26.274 12.5469 26.254C12.8759 26.059 13.2109 25.862 13.5429 25.667C14.1909 25.287 14.8269 24.932 15.3789 24.631C15.0699 25.477 14.8439 26.491 14.7259 27.956C14.5879 29.677 15.2929 31.901 16.2159 32.776C16.6219 33.161 17.1109 33.17 17.4209 33.17C18.4949 33.17 18.9849 32.277 19.5239 31.22C20.1859 29.924 20.7729 28.416 20.7729 28.416C20.7729 28.416 20.0359 32.491 22.0439 32.491C22.7749 32.491 23.5109 31.542 23.8389 31.059C23.8399 31.064 23.8399 31.067 23.8399 31.067C23.8399 31.067 23.8589 31.036 23.8959 30.972C23.9719 30.856 24.0149 30.782 24.0149 30.782C24.0149 30.782 24.0169 30.774 24.0189 30.761C24.3129 30.251 24.9649 29.087 25.9429 27.167C27.2059 24.687 28.4179 21.581 28.4179 21.581C28.4179 21.581 28.5309 22.341 28.8999 23.596C29.1169 24.335 29.5789 25.152 29.9429 25.935C29.6499 26.342 29.4699 26.575 29.4699 26.575C29.4699 26.575 29.4719 26.579 29.4749 26.587C29.2409 26.898 28.9779 27.233 28.7029 27.561C27.7059 28.749 26.5179 30.105 26.3589 30.497C26.1719 30.958 26.2159 31.298 26.5779 31.57C26.8419 31.769 27.3129 31.8 27.8049 31.767C28.7009 31.707 29.3319 31.484 29.6429 31.349C30.1279 31.178 30.6929 30.908 31.2229 30.518C32.2009 29.799 32.7909 28.77 32.7349 27.407C32.7039 26.656 32.4639 25.912 32.1609 25.209C32.2499 25.081 32.3389 24.953 32.4279 24.822C33.9699 22.567 35.1659 20.09 35.1659 20.09C35.1659 20.09 35.2789 20.85 35.6479 22.105C35.8349 22.741 36.2039 23.434 36.5349 24.114C35.0849 25.292 34.1859 26.661 33.8729 27.559C33.2959 29.22 33.7479 29.973 34.5959 30.144C34.9799 30.222 35.5229 30.046 35.9309 29.873C36.4389 29.705 37.0489 29.424 37.6189 29.005C38.5969 28.286 39.5379 27.279 39.4809 25.916C39.4549 25.296 39.2869 24.68 39.0589 24.088C40.2879 23.576 41.8799 23.291 43.9069 23.528C48.2559 24.036 49.1089 26.751 48.9459 27.887C48.7829 29.024 47.8709 29.648 47.5659 29.837C47.2609 30.026 47.1679 30.091 47.1939 30.231C47.2309 30.435 47.3719 30.427 47.6319 30.383C47.9899 30.323 49.9149 29.459 49.9979 27.361C50.1019 24.703 47.5499 21.778 43.0299 21.802ZM9.51195 33.102C8.07195 34.673 6.05895 35.267 5.19595 34.767C4.26395 34.227 4.63295 31.913 6.40095 30.246C7.47795 29.23 8.86895 28.294 9.79195 27.717C10.0019 27.591 10.3099 27.405 10.6849 27.18C10.7469 27.145 10.7819 27.125 10.7819 27.125L10.7809 27.123C10.8529 27.08 10.9279 27.035 11.0039 26.989C11.6469 29.363 11.0239 31.453 9.51195 33.102ZM20.0049 25.968C19.5029 27.191 18.4529 30.32 17.8139 30.152C17.2649 30.008 16.9309 27.629 17.7039 25.289C18.0929 24.111 18.9239 22.703 19.4129 22.156C20.1989 21.277 21.0649 20.989 21.2749 21.346C21.5439 21.8 20.3199 25.201 20.0049 25.968ZM28.6749 30.105C28.4619 30.216 28.2669 30.286 28.1769 30.232C28.1099 30.192 28.2649 30.046 28.2649 30.046C28.2649 30.046 29.3489 28.879 29.7769 28.348C30.0249 28.039 30.3139 27.672 30.6269 27.262C30.6299 27.303 30.6309 27.344 30.6309 27.384C30.6269 28.782 29.2769 29.725 28.6749 30.105ZM35.3539 28.582C35.1949 28.469 35.2219 28.104 35.7429 26.968C35.9479 26.522 36.4149 25.77 37.2279 25.052C37.3219 25.347 37.3799 25.63 37.3779 25.894C37.3669 27.653 36.1119 28.31 35.3539 28.582Z" fill="black"/>
</svg>
